<svg width="168" height="122" viewBox="0 0 168 122" fill="none" xmlns="http://www.w3.org/2000/svg">
<g clip-path="url(#clip0_1_386)">
<ellipse cx="84" cy="60.9999" rx="30.4968" ry="30.2348" fill="white"/>
<path style="mix-blend-mode:multiply" d="M84 117.516C130.392 117.516 168 114.835 168 111.528C168 108.222 130.392 105.541 84 105.541C37.6081 105.541 0 108.222 0 111.528C0 114.835 37.6081 117.516 84 117.516Z" fill="url(#paint0_radial_1_386)"/>
<path d="M126.855 61.0007C126.855 84.1126 107.614 103.131 84.2297 103.131C69.0206 103.131 54.9209 95.0854 47.3163 82.067L54.0675 78.2145C63.685 94.6788 84.9857 100.321 101.644 90.8148C118.303 81.3072 124.011 60.2531 114.393 43.7878C107.947 32.7529 96.2551 26.5801 84.2297 26.5689V18.8687C107.614 18.8687 126.855 37.8874 126.855 61.0007Z" fill="#006548"/>
<path d="M84.1778 39.769C83.6762 39.769 83.2696 39.3671 83.2696 38.871V33.7456C83.2696 33.2498 83.6762 32.8479 84.1778 32.8479C84.6794 32.8479 85.086 33.2498 85.086 33.7456V38.871C85.086 39.3668 84.6794 39.769 84.1778 39.769Z" fill="#414042"/>
<path d="M84.2293 89.1532C83.7277 89.1532 83.3211 88.7512 83.3211 88.2551V83.1297C83.3211 82.634 83.7277 82.2317 84.2293 82.2317C84.7309 82.2317 85.1376 82.6336 85.1376 83.1297V88.2551C85.1376 88.7509 84.7309 89.1532 84.2293 89.1532Z" fill="#414042"/>
<path d="M73.0354 42.2074C72.9054 42.2074 72.7793 42.1406 72.7097 42.0217L70.117 37.5829C70.0131 37.4053 70.0748 37.1779 70.2545 37.0753C70.4341 36.9726 70.6642 37.0336 70.7681 37.2112L73.3608 41.6499C73.4646 41.8275 73.4029 42.0549 73.2233 42.1576C73.164 42.1915 73.0995 42.2074 73.0357 42.2074H73.0354Z" fill="#414042"/>
<path d="M98.017 84.9757C97.887 84.9757 97.7609 84.9089 97.6913 84.79L95.0986 80.3512C94.9947 80.1737 95.0564 79.9463 95.2361 79.8436C95.4157 79.7409 95.6458 79.8019 95.7497 79.9795L98.3424 84.4182C98.4462 84.5958 98.3845 84.8232 98.2049 84.9259C98.1456 84.9598 98.0811 84.9757 98.0173 84.9757H98.017Z" fill="#414042"/>
<path d="M64.8401 50.3074C64.7763 50.3074 64.7118 50.2915 64.6525 50.2576L60.1618 47.6949C59.9821 47.5922 59.9204 47.3652 60.0243 47.1872C60.1282 47.0097 60.3579 46.9487 60.5379 47.0513L65.0287 49.614C65.2083 49.7167 65.27 49.9438 65.1661 50.1217C65.0965 50.241 64.97 50.3074 64.8404 50.3074H64.8401Z" fill="#414042"/>
<path d="M108.109 74.9995C108.045 74.9995 107.98 74.9836 107.921 74.9497L103.431 72.387C103.251 72.2843 103.189 72.0573 103.293 71.8794C103.397 71.7018 103.627 71.6408 103.807 71.7435L108.298 74.3062C108.477 74.4088 108.539 74.6359 108.435 74.8138C108.365 74.9331 108.239 74.9995 108.109 74.9995H108.109Z" fill="#414042"/>
<path d="M61.8408 61.8986H56.6554C56.1538 61.8986 55.7468 61.4966 55.7468 61.0008C55.7468 60.505 56.1535 60.1028 56.6554 60.1028H61.8408C62.3424 60.1028 62.7493 60.5047 62.7493 61.0008C62.7493 61.497 62.3427 61.8986 61.8408 61.8986Z" fill="#414042"/>
<path d="M111.804 61.8986H106.618C106.117 61.8986 105.71 61.4966 105.71 61.0008C105.71 60.505 106.116 60.1028 106.618 60.1028H111.804C112.305 60.1028 112.712 60.5047 112.712 61.0008C112.712 61.497 112.306 61.8986 111.804 61.8986Z" fill="#414042"/>
<path d="M60.35 74.9995C60.2201 74.9995 60.0939 74.9328 60.0243 74.8138C59.9204 74.6362 59.9821 74.4088 60.1618 74.3062L64.6525 71.7435C64.8322 71.6408 65.0623 71.7018 65.1661 71.8794C65.27 72.057 65.2083 72.2843 65.0287 72.387L60.5379 74.9497C60.4786 74.9836 60.4141 74.9995 60.3504 74.9995H60.35Z" fill="#414042"/>
<path d="M103.619 50.3074C103.489 50.3074 103.363 50.2406 103.293 50.1217C103.189 49.9441 103.251 49.7167 103.431 49.614L107.921 47.0513C108.101 46.9487 108.331 47.0097 108.435 47.1872C108.539 47.3648 108.477 47.5922 108.298 47.6949L103.807 50.2576C103.748 50.2915 103.683 50.3074 103.619 50.3074H103.619Z" fill="#414042"/>
<path d="M70.442 84.9757C70.3782 84.9757 70.3138 84.9598 70.2545 84.9259C70.0748 84.8232 70.0131 84.5962 70.117 84.4182L72.7097 79.9795C72.8136 79.8019 73.0433 79.7409 73.2233 79.8436C73.4029 79.9463 73.4646 80.1733 73.3608 80.3512L70.7681 84.79C70.6985 84.9093 70.572 84.9757 70.4424 84.9757H70.442Z" fill="#414042"/>
<path d="M95.4236 42.2074C95.3598 42.2074 95.295 42.1915 95.2361 42.1576C95.0564 42.0549 94.9947 41.8278 95.0986 41.6499L97.6913 37.2112C97.7952 37.0336 98.0249 36.9726 98.2049 37.0753C98.3845 37.1779 98.4462 37.405 98.3424 37.5829L95.7497 42.0217C95.6801 42.141 95.5536 42.2074 95.424 42.2074H95.4236Z" fill="#414042"/>
<path d="M114.393 43.7878C107.947 32.7529 96.2547 26.58 84.2294 26.5689C78.3096 26.5638 72.3093 28.0505 66.815 31.1866C50.1552 40.6927 44.4483 61.7482 54.0658 78.2135C54.0658 78.2135 54.0658 78.2148 54.0672 78.2148C63.6847 94.6791 84.9854 100.321 101.644 90.8151C118.302 81.3075 124.01 60.2534 114.393 43.7881V43.7878ZM99.3415 86.8724C84.8856 95.1224 66.4029 90.2274 58.055 75.9389V75.9375C49.7085 61.6489 54.6621 43.3788 69.1179 35.1289C73.8871 32.4072 79.093 31.1167 84.2297 31.1218C94.6646 31.132 104.811 36.4878 110.404 46.0638C118.751 60.3524 113.797 78.6225 99.3415 86.8724Z" fill="#414042"/>
<g style="mix-blend-mode:multiply">
<path d="M94.2936 85.5353C108.749 77.2857 113.703 59.0152 105.356 44.7263C101.654 38.3874 95.9554 33.8974 89.4991 31.5835C97.9793 33.0719 105.761 38.1135 110.405 46.0635C118.751 60.3525 113.798 78.623 99.3422 86.8725C91.2991 91.4624 82.009 91.983 73.9118 89.0807C80.6739 90.2675 87.8801 89.1953 94.2936 85.5353Z" fill="#E6E7E8"/>
</g>
<path d="M84.2294 64.7352C86.3161 64.7352 88.0076 63.0632 88.0076 61.0007C88.0076 58.9381 86.3161 57.2661 84.2294 57.2661C82.1427 57.2661 80.4511 58.9381 80.4511 61.0007C80.4511 63.0632 82.1427 64.7352 84.2294 64.7352Z" fill="#414042"/>
<path d="M83.567 38.9333L83.5636 41.4931L83.5659 42.9532L83.532 44.3811L83.5916 46.0574L83.5569 46.9308L83.5422 58.3013C83.5416 58.8155 83.9608 59.2316 84.4786 59.231C84.6492 59.2309 84.8091 59.1854 84.9469 59.1061C85.0897 59.0242 85.2082 58.906 85.2907 58.7644C85.3706 58.6272 85.4169 58.4684 85.4174 58.2988L85.4423 38.9312C85.443 38.417 85.0238 38.0009 84.5059 38.0015C83.9883 38.0024 83.5675 38.4194 83.567 38.9333Z" fill="#006548"/>
<path d="M84.4047 62.556C83.8856 62.556 83.465 62.1402 83.465 61.6271V48.1376C83.465 47.6246 83.8856 47.2087 84.4047 47.2087C84.9238 47.2087 85.3445 47.6246 85.3445 48.1376V61.6271C85.3445 62.1402 84.9238 62.556 84.4047 62.556Z" fill="#02402E"/>
<path d="M84.2294 62.9713C85.3305 62.9713 86.2231 62.089 86.2231 61.0007C86.2231 59.9123 85.3305 59.03 84.2294 59.03C83.1283 59.03 82.2357 59.9123 82.2357 61.0007C82.2357 62.089 83.1283 62.9713 84.2294 62.9713Z" fill="white"/>
</g>
<defs>
<radialGradient id="paint0_radial_1_386" cx="0" cy="0" r="1" gradientUnits="userSpaceOnUse" gradientTransform="translate(84.1997 116.464) scale(60.2771 4.06223)">
<stop stop-color="#58595B"/>
<stop offset="0.09" stop-color="#767778"/>
<stop offset="0.23" stop-color="#9FA0A1"/>
<stop offset="0.38" stop-color="#C2C2C3"/>
<stop offset="0.53" stop-color="#DCDDDD"/>
<stop offset="0.68" stop-color="#EFF0F0"/>
<stop offset="0.84" stop-color="#FBFBFB"/>
<stop offset="1" stop-color="white"/>
</radialGradient>
<clipPath id="clip0_1_386">
<rect width="168" height="122" fill="white"/>
</clipPath>
</defs>
</svg>
